<?xml version="1.0" encoding="UTF-8" standalone="no"?>
<!DOCTYPE svg PUBLIC "-//W3C//DTD SVG 1.1//EN"
 "http://www.w3.org/Graphics/SVG/1.1/DTD/svg11.dtd">
<!-- Generated by graphviz version 2.43.0 (0)
 -->
<!-- Title: %3 Pages: 1 -->
<svg width="764pt" height="476pt"
 viewBox="0.00 0.00 764.17 476.00" xmlns="http://www.w3.org/2000/svg" xmlns:xlink="http://www.w3.org/1999/xlink">
<g id="graph0" class="graph" transform="scale(1 1) rotate(0) translate(4 472)">
<title>%3</title>
<polygon fill="white" stroke="transparent" points="-4,4 -4,-472 760.17,-472 760.17,4 -4,4"/>
<!-- [root] aws_instance.public_instance (expand) -->
<g id="node1" class="node">
<title>[root] aws_instance.public_instance (expand)</title>
<polygon fill="none" stroke="black" points="429.19,-324 252.19,-324 252.19,-288 429.19,-288 429.19,-324"/>
<text text-anchor="middle" x="340.69" y="-302.3" font-family="Times,serif" font-size="14.00">aws_instance.public_instance</text>
</g>
<!-- [root] aws_subnet.public_subnet (expand) -->
<g id="node3" class="node">
<title>[root] aws_subnet.public_subnet (expand)</title>
<polygon fill="none" stroke="black" points="603.19,-252 444.19,-252 444.19,-216 603.19,-216 603.19,-252"/>
<text text-anchor="middle" x="523.69" y="-230.3" font-family="Times,serif" font-size="14.00">aws_subnet.public_subnet</text>
</g>
<!-- [root] aws_instance.public_instance (expand)&#45;&gt;[root] aws_subnet.public_subnet (expand) -->
<g id="edge1" class="edge">
<title>[root] aws_instance.public_instance (expand)&#45;&gt;[root] aws_subnet.public_subnet (expand)</title>
<path fill="none" stroke="black" d="M385.45,-287.88C410.81,-278.18 442.7,-265.98 469.46,-255.74"/>
<polygon fill="black" stroke="black" points="470.98,-258.91 479.07,-252.07 468.48,-252.37 470.98,-258.91"/>
</g>
<!-- [root] data.aws_key_pair.myKey (expand) -->
<g id="node5" class="node">
<title>[root] data.aws_key_pair.myKey (expand)</title>
<polygon fill="none" stroke="black" points="421.19,-252 260.19,-252 260.19,-216 421.19,-216 421.19,-252"/>
<text text-anchor="middle" x="340.69" y="-230.3" font-family="Times,serif" font-size="14.00">data.aws_key_pair.myKey</text>
</g>
<!-- [root] aws_instance.public_instance (expand)&#45;&gt;[root] data.aws_key_pair.myKey (expand) -->
<g id="edge2" class="edge">
<title>[root] aws_instance.public_instance (expand)&#45;&gt;[root] data.aws_key_pair.myKey (expand)</title>
<path fill="none" stroke="black" d="M340.69,-287.7C340.69,-279.98 340.69,-270.71 340.69,-262.11"/>
<polygon fill="black" stroke="black" points="344.19,-262.1 340.69,-252.1 337.19,-262.1 344.19,-262.1"/>
</g>
<!-- [root] aws_subnet.private_subnet (expand) -->
<g id="node2" class="node">
<title>[root] aws_subnet.private_subnet (expand)</title>
<polygon fill="none" stroke="black" points="610.19,-324 447.19,-324 447.19,-288 610.19,-288 610.19,-324"/>
<text text-anchor="middle" x="528.69" y="-302.3" font-family="Times,serif" font-size="14.00">aws_subnet.private_subnet</text>
</g>
<!-- [root] aws_subnet.private_subnet (expand)&#45;&gt;[root] aws_subnet.public_subnet (expand) -->
<g id="edge3" class="edge">
<title>[root] aws_subnet.private_subnet (expand)&#45;&gt;[root] aws_subnet.public_subnet (expand)</title>
<path fill="none" stroke="black" d="M527.45,-287.7C526.9,-279.98 526.24,-270.71 525.62,-262.11"/>
<polygon fill="black" stroke="black" points="529.11,-261.83 524.91,-252.1 522.13,-262.33 529.11,-261.83"/>
</g>
<!-- [root] aws_vpc.vpc_virginia (expand) -->
<g id="node4" class="node">
<title>[root] aws_vpc.vpc_virginia (expand)</title>
<polygon fill="none" stroke="black" points="655.69,-180 519.69,-180 519.69,-144 655.69,-144 655.69,-180"/>
<text text-anchor="middle" x="587.69" y="-158.3" font-family="Times,serif" font-size="14.00">aws_vpc.vpc_virginia</text>
</g>
<!-- [root] aws_subnet.public_subnet (expand)&#45;&gt;[root] aws_vpc.vpc_virginia (expand) -->
<g id="edge4" class="edge">
<title>[root] aws_subnet.public_subnet (expand)&#45;&gt;[root] aws_vpc.vpc_virginia (expand)</title>
<path fill="none" stroke="black" d="M539.51,-215.7C547.26,-207.22 556.73,-196.86 565.21,-187.58"/>
<polygon fill="black" stroke="black" points="567.88,-189.85 572.05,-180.1 562.72,-185.12 567.88,-189.85"/>
</g>
<!-- [root] var.subnets -->
<g id="node7" class="node">
<title>[root] var.subnets</title>
<polygon fill="none" stroke="black" points="495.19,-180 424.19,-180 424.19,-144 501.19,-144 501.19,-174 495.19,-180"/>
<polyline fill="none" stroke="black" points="495.19,-180 495.19,-174 "/>
<polyline fill="none" stroke="black" points="501.19,-174 495.19,-174 "/>
<text text-anchor="middle" x="462.69" y="-158.3" font-family="Times,serif" font-size="14.00">var.subnets</text>
</g>
<!-- [root] aws_subnet.public_subnet (expand)&#45;&gt;[root] var.subnets -->
<g id="edge5" class="edge">
<title>[root] aws_subnet.public_subnet (expand)&#45;&gt;[root] var.subnets</title>
<path fill="none" stroke="black" d="M508.61,-215.7C501.3,-207.3 492.38,-197.07 484.35,-187.86"/>
<polygon fill="black" stroke="black" points="486.8,-185.34 477.59,-180.1 481.52,-189.94 486.8,-185.34"/>
</g>
<!-- [root] provider[&quot;registry.terraform.io/hashicorp/aws&quot;] -->
<g id="node6" class="node">
<title>[root] provider[&quot;registry.terraform.io/hashicorp/aws&quot;]</title>
<polygon fill="none" stroke="black" points="340.69,-108 88.15,-90 340.69,-72 593.22,-90 340.69,-108"/>
<text text-anchor="middle" x="340.69" y="-86.3" font-family="Times,serif" font-size="14.00">provider[&quot;registry.terraform.io/hashicorp/aws&quot;]</text>
</g>
<!-- [root] aws_vpc.vpc_virginia (expand)&#45;&gt;[root] provider[&quot;registry.terraform.io/hashicorp/aws&quot;] -->
<g id="edge6" class="edge">
<title>[root] aws_vpc.vpc_virginia (expand)&#45;&gt;[root] provider[&quot;registry.terraform.io/hashicorp/aws&quot;]</title>
<path fill="none" stroke="black" d="M527.58,-143.97C488.39,-132.86 437.5,-118.44 398.73,-107.45"/>
<polygon fill="black" stroke="black" points="399.22,-103.95 388.64,-104.59 397.31,-110.68 399.22,-103.95"/>
</g>
<!-- [root] var.virginia_cidr -->
<g id="node9" class="node">
<title>[root] var.virginia_cidr</title>
<polygon fill="none" stroke="black" points="712.19,-108 611.19,-108 611.19,-72 718.19,-72 718.19,-102 712.19,-108"/>
<polyline fill="none" stroke="black" points="712.19,-108 712.19,-102 "/>
<polyline fill="none" stroke="black" points="718.19,-102 712.19,-102 "/>
<text text-anchor="middle" x="664.69" y="-86.3" font-family="Times,serif" font-size="14.00">var.virginia_cidr</text>
</g>
<!-- [root] aws_vpc.vpc_virginia (expand)&#45;&gt;[root] var.virginia_cidr -->
<g id="edge7" class="edge">
<title>[root] aws_vpc.vpc_virginia (expand)&#45;&gt;[root] var.virginia_cidr</title>
<path fill="none" stroke="black" d="M606.72,-143.7C616.23,-135.05 627.89,-124.45 638.26,-115.03"/>
<polygon fill="black" stroke="black" points="640.83,-117.42 645.87,-108.1 636.12,-112.24 640.83,-117.42"/>
</g>
<!-- [root] data.aws_key_pair.myKey (expand)&#45;&gt;[root] provider[&quot;registry.terraform.io/hashicorp/aws&quot;] -->
<g id="edge8" class="edge">
<title>[root] data.aws_key_pair.myKey (expand)&#45;&gt;[root] provider[&quot;registry.terraform.io/hashicorp/aws&quot;]</title>
<path fill="none" stroke="black" d="M340.69,-215.87C340.69,-191.67 340.69,-147.21 340.69,-118.39"/>
<polygon fill="black" stroke="black" points="344.19,-118.19 340.69,-108.19 337.19,-118.19 344.19,-118.19"/>
</g>
<!-- [root] var.tags -->
<g id="node8" class="node">
<title>[root] var.tags</title>
<polygon fill="none" stroke="black" points="364.19,-36 311.19,-36 311.19,0 370.19,0 370.19,-30 364.19,-36"/>
<polyline fill="none" stroke="black" points="364.19,-36 364.19,-30 "/>
<polyline fill="none" stroke="black" points="370.19,-30 364.19,-30 "/>
<text text-anchor="middle" x="340.69" y="-14.3" font-family="Times,serif" font-size="14.00">var.tags</text>
</g>
<!-- [root] provider[&quot;registry.terraform.io/hashicorp/aws&quot;]&#45;&gt;[root] var.tags -->
<g id="edge12" class="edge">
<title>[root] provider[&quot;registry.terraform.io/hashicorp/aws&quot;]&#45;&gt;[root] var.tags</title>
<path fill="none" stroke="black" d="M340.69,-71.7C340.69,-63.98 340.69,-54.71 340.69,-46.11"/>
<polygon fill="black" stroke="black" points="344.19,-46.1 340.69,-36.1 337.19,-46.1 344.19,-46.1"/>
</g>
<!-- [root] output.ec2_public_ip (expand) -->
<g id="node10" class="node">
<title>[root] output.ec2_public_ip (expand)</title>
<ellipse fill="none" stroke="black" cx="141.69" cy="-378" rx="141.88" ry="18"/>
<text text-anchor="middle" x="141.69" y="-374.3" font-family="Times,serif" font-size="14.00">[root] output.ec2_public_ip (expand)</text>
</g>
<!-- [root] output.ec2_public_ip (expand)&#45;&gt;[root] aws_instance.public_instance (expand) -->
<g id="edge9" class="edge">
<title>[root] output.ec2_public_ip (expand)&#45;&gt;[root] aws_instance.public_instance (expand)</title>
<path fill="none" stroke="black" d="M187.34,-360.94C215.61,-351 252.17,-338.14 282.51,-327.47"/>
<polygon fill="black" stroke="black" points="283.85,-330.7 292.12,-324.08 281.52,-324.1 283.85,-330.7"/>
</g>
<!-- [root] provider[&quot;registry.terraform.io/hashicorp/aws&quot;] (close) -->
<g id="node11" class="node">
<title>[root] provider[&quot;registry.terraform.io/hashicorp/aws&quot;] (close)</title>
<ellipse fill="none" stroke="black" cx="528.69" cy="-378" rx="227.46" ry="18"/>
<text text-anchor="middle" x="528.69" y="-374.3" font-family="Times,serif" font-size="14.00">[root] provider[&quot;registry.terraform.io/hashicorp/aws&quot;] (close)</text>
</g>
<!-- [root] provider[&quot;registry.terraform.io/hashicorp/aws&quot;] (close)&#45;&gt;[root] aws_instance.public_instance (expand) -->
<g id="edge10" class="edge">
<title>[root] provider[&quot;registry.terraform.io/hashicorp/aws&quot;] (close)&#45;&gt;[root] aws_instance.public_instance (expand)</title>
<path fill="none" stroke="black" d="M483.66,-360.23C457.42,-350.46 424.12,-338.07 396.26,-327.69"/>
<polygon fill="black" stroke="black" points="397.25,-324.33 386.66,-324.12 394.81,-330.89 397.25,-324.33"/>
</g>
<!-- [root] provider[&quot;registry.terraform.io/hashicorp/aws&quot;] (close)&#45;&gt;[root] aws_subnet.private_subnet (expand) -->
<g id="edge11" class="edge">
<title>[root] provider[&quot;registry.terraform.io/hashicorp/aws&quot;] (close)&#45;&gt;[root] aws_subnet.private_subnet (expand)</title>
<path fill="none" stroke="black" d="M528.69,-359.7C528.69,-351.98 528.69,-342.71 528.69,-334.11"/>
<polygon fill="black" stroke="black" points="532.19,-334.1 528.69,-324.1 525.19,-334.1 532.19,-334.1"/>
</g>
<!-- [root] root -->
<g id="node12" class="node">
<title>[root] root</title>
<ellipse fill="none" stroke="black" cx="334.69" cy="-450" rx="47.39" ry="18"/>
<text text-anchor="middle" x="334.69" y="-446.3" font-family="Times,serif" font-size="14.00">[root] root</text>
</g>
<!-- [root] root&#45;&gt;[root] output.ec2_public_ip (expand) -->
<g id="edge13" class="edge">
<title>[root] root&#45;&gt;[root] output.ec2_public_ip (expand)</title>
<path fill="none" stroke="black" d="M301.51,-436.97C272.57,-426.47 230.03,-411.04 196.12,-398.74"/>
<polygon fill="black" stroke="black" points="196.94,-395.32 186.35,-395.2 194.55,-401.9 196.94,-395.32"/>
</g>
<!-- [root] root&#45;&gt;[root] provider[&quot;registry.terraform.io/hashicorp/aws&quot;] (close) -->
<g id="edge14" class="edge">
<title>[root] root&#45;&gt;[root] provider[&quot;registry.terraform.io/hashicorp/aws&quot;] (close)</title>
<path fill="none" stroke="black" d="M368.04,-436.97C396.73,-426.61 438.73,-411.46 472.59,-399.24"/>
<polygon fill="black" stroke="black" points="474.14,-402.4 482.35,-395.72 471.76,-395.82 474.14,-402.4"/>
</g>
</g>
</svg>
